<mxfile host="app.diagrams.net" modified="2022-09-24T09:36:40.104Z" agent="5.0 (Windows NT 10.0; Win64; x64) AppleWebKit/537.36 (KHTML, like Gecko) Chrome/105.0.0.0 Safari/537.36 Edg/105.0.1343.50" etag="mSf5RiktSqfPd4Vl1MHq" version="20.3.6" type="github">
  <diagram id="LDjekXkkmC-T5UO8Uxq7" name="Page-1">
    <mxGraphModel dx="1037" dy="547" grid="1" gridSize="10" guides="1" tooltips="1" connect="1" arrows="1" fold="1" page="1" pageScale="1" pageWidth="1000" pageHeight="1000" math="0" shadow="0">
      <root>
        <mxCell id="0" />
        <mxCell id="1" parent="0" />
        <mxCell id="o5piqOK8tfjYyDGTtrcf-10" style="edgeStyle=orthogonalEdgeStyle;rounded=0;orthogonalLoop=1;jettySize=auto;html=1;entryX=0;entryY=0.5;entryDx=0;entryDy=0;" edge="1" parent="1" source="o5piqOK8tfjYyDGTtrcf-1" target="o5piqOK8tfjYyDGTtrcf-6">
          <mxGeometry relative="1" as="geometry" />
        </mxCell>
        <mxCell id="o5piqOK8tfjYyDGTtrcf-1" value="a" style="rounded=0;whiteSpace=wrap;html=1;" vertex="1" parent="1">
          <mxGeometry x="120" y="160" width="80" height="40" as="geometry" />
        </mxCell>
        <mxCell id="o5piqOK8tfjYyDGTtrcf-11" style="edgeStyle=orthogonalEdgeStyle;rounded=0;orthogonalLoop=1;jettySize=auto;html=1;" edge="1" parent="1" source="o5piqOK8tfjYyDGTtrcf-2" target="o5piqOK8tfjYyDGTtrcf-7">
          <mxGeometry relative="1" as="geometry" />
        </mxCell>
        <mxCell id="o5piqOK8tfjYyDGTtrcf-2" value="b" style="rounded=0;whiteSpace=wrap;html=1;" vertex="1" parent="1">
          <mxGeometry x="120" y="200" width="80" height="40" as="geometry" />
        </mxCell>
        <mxCell id="o5piqOK8tfjYyDGTtrcf-12" style="edgeStyle=orthogonalEdgeStyle;rounded=0;orthogonalLoop=1;jettySize=auto;html=1;" edge="1" parent="1" source="o5piqOK8tfjYyDGTtrcf-3" target="o5piqOK8tfjYyDGTtrcf-8">
          <mxGeometry relative="1" as="geometry" />
        </mxCell>
        <mxCell id="o5piqOK8tfjYyDGTtrcf-3" value="c" style="rounded=0;whiteSpace=wrap;html=1;" vertex="1" parent="1">
          <mxGeometry x="120" y="240" width="80" height="40" as="geometry" />
        </mxCell>
        <mxCell id="o5piqOK8tfjYyDGTtrcf-5" value="single_table 的 key3" style="text;html=1;align=center;verticalAlign=middle;resizable=0;points=[];autosize=1;strokeColor=none;fillColor=none;" vertex="1" parent="1">
          <mxGeometry x="95" y="130" width="130" height="30" as="geometry" />
        </mxCell>
        <mxCell id="o5piqOK8tfjYyDGTtrcf-6" value="a" style="rounded=0;whiteSpace=wrap;html=1;" vertex="1" parent="1">
          <mxGeometry x="280" y="160" width="80" height="40" as="geometry" />
        </mxCell>
        <mxCell id="o5piqOK8tfjYyDGTtrcf-7" value="b" style="rounded=0;whiteSpace=wrap;html=1;" vertex="1" parent="1">
          <mxGeometry x="280" y="200" width="80" height="40" as="geometry" />
        </mxCell>
        <mxCell id="o5piqOK8tfjYyDGTtrcf-8" value="c" style="rounded=0;whiteSpace=wrap;html=1;" vertex="1" parent="1">
          <mxGeometry x="280" y="240" width="80" height="40" as="geometry" />
        </mxCell>
        <mxCell id="o5piqOK8tfjYyDGTtrcf-9" value="single_table_copy 的 key3" style="text;html=1;align=center;verticalAlign=middle;resizable=0;points=[];autosize=1;strokeColor=none;fillColor=none;" vertex="1" parent="1">
          <mxGeometry x="240" y="130" width="160" height="30" as="geometry" />
        </mxCell>
        <mxCell id="o5piqOK8tfjYyDGTtrcf-13" style="edgeStyle=orthogonalEdgeStyle;rounded=0;orthogonalLoop=1;jettySize=auto;html=1;entryX=0;entryY=0.5;entryDx=0;entryDy=0;" edge="1" parent="1" source="o5piqOK8tfjYyDGTtrcf-14" target="o5piqOK8tfjYyDGTtrcf-20">
          <mxGeometry relative="1" as="geometry" />
        </mxCell>
        <mxCell id="o5piqOK8tfjYyDGTtrcf-29" style="edgeStyle=none;rounded=0;orthogonalLoop=1;jettySize=auto;html=1;entryX=0;entryY=0.5;entryDx=0;entryDy=0;exitX=1;exitY=0.5;exitDx=0;exitDy=0;" edge="1" parent="1" source="o5piqOK8tfjYyDGTtrcf-14" target="o5piqOK8tfjYyDGTtrcf-21">
          <mxGeometry relative="1" as="geometry" />
        </mxCell>
        <mxCell id="o5piqOK8tfjYyDGTtrcf-14" value="a" style="rounded=0;whiteSpace=wrap;html=1;" vertex="1" parent="1">
          <mxGeometry x="120" y="360" width="80" height="40" as="geometry" />
        </mxCell>
        <mxCell id="o5piqOK8tfjYyDGTtrcf-15" style="rounded=0;orthogonalLoop=1;jettySize=auto;html=1;entryX=0;entryY=0.5;entryDx=0;entryDy=0;exitX=1;exitY=0.5;exitDx=0;exitDy=0;" edge="1" parent="1" source="o5piqOK8tfjYyDGTtrcf-16" target="o5piqOK8tfjYyDGTtrcf-24">
          <mxGeometry relative="1" as="geometry" />
        </mxCell>
        <mxCell id="o5piqOK8tfjYyDGTtrcf-28" style="edgeStyle=none;rounded=0;orthogonalLoop=1;jettySize=auto;html=1;entryX=0;entryY=0.5;entryDx=0;entryDy=0;exitX=1;exitY=0.5;exitDx=0;exitDy=0;" edge="1" parent="1" source="o5piqOK8tfjYyDGTtrcf-16" target="o5piqOK8tfjYyDGTtrcf-22">
          <mxGeometry relative="1" as="geometry" />
        </mxCell>
        <mxCell id="o5piqOK8tfjYyDGTtrcf-16" value="b" style="rounded=0;whiteSpace=wrap;html=1;" vertex="1" parent="1">
          <mxGeometry x="120" y="400" width="80" height="40" as="geometry" />
        </mxCell>
        <mxCell id="o5piqOK8tfjYyDGTtrcf-17" style="rounded=0;orthogonalLoop=1;jettySize=auto;html=1;entryX=0;entryY=0.5;entryDx=0;entryDy=0;exitX=1;exitY=0.5;exitDx=0;exitDy=0;" edge="1" parent="1" source="o5piqOK8tfjYyDGTtrcf-18" target="o5piqOK8tfjYyDGTtrcf-26">
          <mxGeometry relative="1" as="geometry" />
        </mxCell>
        <mxCell id="o5piqOK8tfjYyDGTtrcf-27" style="edgeStyle=none;rounded=0;orthogonalLoop=1;jettySize=auto;html=1;entryX=0;entryY=0.5;entryDx=0;entryDy=0;exitX=1;exitY=0.5;exitDx=0;exitDy=0;" edge="1" parent="1" source="o5piqOK8tfjYyDGTtrcf-18" target="o5piqOK8tfjYyDGTtrcf-25">
          <mxGeometry relative="1" as="geometry" />
        </mxCell>
        <mxCell id="o5piqOK8tfjYyDGTtrcf-18" value="c" style="rounded=0;whiteSpace=wrap;html=1;" vertex="1" parent="1">
          <mxGeometry x="120" y="440" width="80" height="40" as="geometry" />
        </mxCell>
        <mxCell id="o5piqOK8tfjYyDGTtrcf-19" value="single_table 的 key3" style="text;html=1;align=center;verticalAlign=middle;resizable=0;points=[];autosize=1;strokeColor=none;fillColor=none;" vertex="1" parent="1">
          <mxGeometry x="95" y="330" width="130" height="30" as="geometry" />
        </mxCell>
        <mxCell id="o5piqOK8tfjYyDGTtrcf-20" value="a" style="rounded=0;whiteSpace=wrap;html=1;" vertex="1" parent="1">
          <mxGeometry x="280" y="360" width="80" height="40" as="geometry" />
        </mxCell>
        <mxCell id="o5piqOK8tfjYyDGTtrcf-21" value="a" style="rounded=0;whiteSpace=wrap;html=1;" vertex="1" parent="1">
          <mxGeometry x="280" y="400" width="80" height="40" as="geometry" />
        </mxCell>
        <mxCell id="o5piqOK8tfjYyDGTtrcf-22" value="b" style="rounded=0;whiteSpace=wrap;html=1;" vertex="1" parent="1">
          <mxGeometry x="280" y="440" width="80" height="40" as="geometry" />
        </mxCell>
        <mxCell id="o5piqOK8tfjYyDGTtrcf-23" value="single_table_copy 的 key3" style="text;html=1;align=center;verticalAlign=middle;resizable=0;points=[];autosize=1;strokeColor=none;fillColor=none;" vertex="1" parent="1">
          <mxGeometry x="240" y="330" width="160" height="30" as="geometry" />
        </mxCell>
        <mxCell id="o5piqOK8tfjYyDGTtrcf-24" value="b" style="rounded=0;whiteSpace=wrap;html=1;" vertex="1" parent="1">
          <mxGeometry x="280" y="480" width="80" height="40" as="geometry" />
        </mxCell>
        <mxCell id="o5piqOK8tfjYyDGTtrcf-25" value="c" style="rounded=0;whiteSpace=wrap;html=1;" vertex="1" parent="1">
          <mxGeometry x="280" y="520" width="80" height="40" as="geometry" />
        </mxCell>
        <mxCell id="o5piqOK8tfjYyDGTtrcf-26" value="c" style="rounded=0;whiteSpace=wrap;html=1;" vertex="1" parent="1">
          <mxGeometry x="280" y="560" width="80" height="40" as="geometry" />
        </mxCell>
      </root>
    </mxGraphModel>
  </diagram>
</mxfile>
